HIERARCHY
ROOT Hips
{
	OFFSET 0.000000 8.830580 0.000000
	CHANNELS 6 Xposition Yposition Zposition Zrotation Yrotation Xrotation 
	JOINT Spine
	{
		OFFSET 0.000000 0.010000 0.000000
		CHANNELS 3 Zrotation Yrotation Xrotation
		JOINT Spine1
		{
			OFFSET 0.000000 2.459130 0.000000
			CHANNELS 3 Zrotation Yrotation Xrotation
			JOINT Neck
			{
				OFFSET 0.000000 2.484630 0.000000
				CHANNELS 3 Zrotation Yrotation Xrotation
				JOINT Head_virtual
				{
					OFFSET 0.000000 0.000000 0.000000
					CHANNELS 3 Zrotation Yrotation Xrotation
					JOINT Head
					{
						OFFSET 0.000000 0.927525 0.000000
						CHANNELS 3 Zrotation Yrotation Xrotation
						End Site
						{
							OFFSET 0.000000 0.000000 0.000000
						}
					}
				}
				JOINT LeftUpArm_virtual
				{
					OFFSET 0.000000 0.000000 0.000000
					CHANNELS 3 Zrotation Yrotation Xrotation
					JOINT LeftUpArm
					{
						OFFSET 1.248820 0.000000 0.000000
						CHANNELS 3 Zrotation Yrotation Xrotation
						JOINT LeftForeArm
						{
							OFFSET 2.597580 0.000000 0.000000
							CHANNELS 3 Zrotation Yrotation Xrotation
							JOINT LeftHand
							{
								OFFSET 2.455420 0.000000 0.000000
								CHANNELS 3 Zrotation Yrotation Xrotation
								End Site
								{
									OFFSET 0.000000 0.000000 0.000000
								}
							}
						}
					}
				}
				JOINT RightUpArm_virtual
				{
					OFFSET -0.000000 -0.000000 -0.000000
					CHANNELS 3 Zrotation Yrotation Xrotation
					JOINT RightUpArm
					{
						OFFSET -1.248820 -0.000000 -0.000000
						CHANNELS 3 Zrotation Yrotation Xrotation
						JOINT RightForeArm
						{
							OFFSET -2.597580 -0.000000 -0.000000
							CHANNELS 3 Zrotation Yrotation Xrotation
							JOINT RightHand
							{
								OFFSET -2.455420 -0.000000 -0.000000
								CHANNELS 3 Zrotation Yrotation Xrotation
								End Site
								{
									OFFSET 0.000000 0.000000 0.000000
								}
							}
						}
					}
				}
			}
		}
	}
	JOINT LeftUpLeg
	{
		OFFSET 1.271939 0.000000 0.000000
		CHANNELS 3 Zrotation Yrotation Xrotation
		JOINT LeftLowLeg
		{
			OFFSET 0.000000 -4.342910 0.000000
			CHANNELS 3 Zrotation Yrotation Xrotation
			JOINT LeftFoot
			{
				OFFSET 0.000000 -4.487670 0.000000
				CHANNELS 3 Zrotation Yrotation Xrotation
				JOINT LeftToeBase
				{
					OFFSET 0.000000 0.000000 1.515070
					CHANNELS 3 Zrotation Yrotation Xrotation
					End Site
					{
						OFFSET 0.000000 0.000000 0.000000
					}
				}
			}
		}
	}
	JOINT RightUpLeg
	{
		OFFSET -1.271939 0.000000 0.000000
		CHANNELS 3 Zrotation Yrotation Xrotation
		JOINT RightLowLeg
		{
			OFFSET 0.000000 -4.342910 0.000000
			CHANNELS 3 Zrotation Yrotation Xrotation
			JOINT RightFoot
			{
				OFFSET 0.000000 -4.487670 0.000000
				CHANNELS 3 Zrotation Yrotation Xrotation
				JOINT RightToeBase
				{
					OFFSET 0.000000 0.000000 1.515070
					CHANNELS 3 Zrotation Yrotation Xrotation
					End Site
					{
						OFFSET 0.000000 0.000000 0.000000
					}
				}
			}
		}
	}
}
MOTION
Frames: 10
Frame Time: 0.041667
-19.798901 9.211807 49.388319 -175.030981 0.576350 -175.853894 2.629601 -2.510216 -5.812106 0.377437 -2.723452 4.085642 0.000000 0.000000 0.000000 -5.629647 0.652273 -13.669752 8.695844 7.670521 -53.240220 -1.122490 15.854000 -4.979520 -6.778320 -2.560040 -32.897701 0.000000 -21.046301 0.000000 32.137001 8.318210 24.857401 9.139610 -10.719800 -0.902270 6.517980 1.995540 -32.706902 0.000000 23.489599 0.000000 -19.734900 -1.705890 27.422300 4.616156 1.568076 -3.363041 0.000000 0.000000 8.092570 -7.649250 4.034079 4.838717 0.000000 0.000000 -37.455700 2.258258 4.726401 -2.328673 0.000000 0.000000 7.147210 8.953178 -6.654539 10.007086 0.000000 0.000000 -28.169600 
-19.798566 9.211661 49.388530 -175.031726 0.554195 -175.878866 2.586456 -2.557701 -5.820889 0.467427 -2.762764 4.111187 0.000000 0.000000 0.000000 -5.756133 0.701666 -13.653667 8.866075 7.617302 -53.218773 -1.178860 15.904100 -4.995580 -6.802720 -2.582140 -32.830200 0.000000 -20.947500 0.000000 32.098999 8.300800 24.753901 9.070380 -10.635300 -0.920678 6.564400 1.961950 -32.749500 0.000000 23.535999 0.000000 -19.747200 -1.746900 27.398199 4.619925 1.548369 -3.363700 0.000000 0.000000 8.129650 -7.635465 4.017430 4.821576 0.000000 0.000000 -37.375500 2.262532 4.727156 -2.315039 0.000000 0.000000 7.173520 8.956811 -6.670016 9.983327 0.000000 0.000000 -28.161100 
-19.798509 9.211632 49.388630 -175.035124 0.535549 -175.886380 2.584957 -2.562093 -5.817666 0.465708 -2.766883 4.102411 0.000000 0.000000 0.000000 -5.727058 0.682894 -13.641227 8.864559 7.614253 -53.224173 -1.177230 15.910800 -4.990650 -6.815420 -2.612500 -32.782101 0.000000 -20.924000 0.000000 32.089901 8.355720 24.854700 9.071180 -10.646900 -0.905968 6.561950 1.968630 -32.766300 0.000000 23.525600 0.000000 -19.743500 -1.737790 27.418501 4.617857 1.536163 -3.367982 0.000000 0.000000 8.142720 -7.625182 4.014020 4.821857 0.000000 0.000000 -37.396700 2.261992 4.746757 -2.312877 0.000000 0.000000 7.189310 8.963624 -6.701868 9.966038 0.000000 0.000000 -28.151500 
-19.798633 9.211499 49.389325 -175.040786 0.504151 -175.899919 2.589173 -2.570531 -5.813190 0.460036 -2.776033 4.098608 0.000000 0.000000 0.000000 -5.702158 0.666430 -13.634867 8.870864 7.607453 -53.223161 -1.193960 15.913300 -4.999150 -6.831440 -2.630630 -32.679298 0.000000 -20.883499 0.000000 32.109699 8.407870 24.826599 9.060460 -10.643700 -0.916684 6.563930 1.961810 -32.733799 0.000000 23.513599 0.000000 -19.745100 -1.781240 27.448400 4.612884 1.516843 -3.383417 0.000000 0.000000 8.176570 -7.612656 4.007366 4.818108 0.000000 0.000000 -37.420500 2.259001 4.748193 -2.319786 0.000000 0.000000 7.230250 8.968869 -6.723364 9.938725 0.000000 0.000000 -28.170000 
-19.798932 9.211435 49.389813 -175.041153 0.492571 -175.912694 2.598966 -2.568171 -5.800446 0.448558 -2.775453 4.090476 0.000000 0.000000 0.000000 -5.677834 0.653686 -13.633853 8.873707 7.604422 -53.221083 -1.206840 15.918100 -4.974340 -6.833310 -2.651250 -32.719601 0.000000 -20.890200 0.000000 32.123402 8.390290 24.826799 9.062490 -10.638700 -0.902884 6.560430 1.950650 -32.751499 0.000000 23.502600 0.000000 -19.757799 -1.765140 27.461100 4.611992 1.522366 -3.387727 0.000000 0.000000 8.199270 -7.615169 3.988791 4.813086 0.000000 0.000000 -37.416800 2.257933 4.733591 -2.317940 0.000000 0.000000 7.250290 8.983755 -6.717612 9.928888 0.000000 0.000000 -28.170000 
-19.799124 9.211403 49.390405 -175.041443 0.483165 -175.930082 2.610327 -2.563802 -5.781066 0.432699 -2.773246 4.088316 0.000000 0.000000 0.000000 -5.659117 0.648630 -13.646950 8.877747 7.604048 -53.214767 -1.209290 15.904400 -4.982040 -6.849840 -2.625340 -32.710800 0.000000 -20.938601 0.000000 32.121498 8.400680 24.650999 9.063910 -10.627400 -0.898255 6.575880 1.928150 -32.787800 0.000000 23.516800 0.000000 -19.809500 -1.768260 27.502001 4.613839 1.495754 -3.386915 0.000000 0.000000 8.221700 -7.623511 3.990662 4.804977 0.000000 0.000000 -37.412600 2.256836 4.732239 -2.313129 0.000000 0.000000 7.267970 8.985743 -6.716451 9.927333 0.000000 0.000000 -28.174500 
-19.799880 9.211305 49.391876 -175.045014 0.476859 -175.979745 2.676828 -2.509615 -5.706942 0.307682 -2.731806 4.051682 0.000000 0.000000 0.000000 -5.511511 0.589917 -13.645884 8.867517 7.618334 -53.226951 -1.170960 15.816100 -4.954020 -6.844460 -2.583040 -32.709999 0.000000 -21.005100 0.000000 32.098701 8.422980 24.757799 9.140310 -10.697100 -0.869937 6.565120 1.920680 -32.838001 0.000000 23.541300 0.000000 -19.807699 -1.746260 27.476400 4.607223 1.463933 -3.364629 0.000000 0.000000 8.253010 -7.615543 4.008343 4.797663 0.000000 0.000000 -37.401699 2.251079 4.721246 -2.286181 0.000000 0.000000 7.295220 9.005318 -6.702598 9.918457 0.000000 0.000000 -28.185300 
-19.800444 9.211270 49.392754 -175.046392 0.473533 -175.999337 2.689058 -2.503578 -5.681171 0.297092 -2.728057 4.054122 0.000000 0.000000 0.000000 -5.486943 0.575976 -13.673006 8.859333 7.614031 -53.228949 -1.185270 15.828500 -4.935980 -6.828580 -2.608940 -32.704102 0.000000 -20.995100 0.000000 32.081799 8.436450 24.739201 9.152390 -10.680800 -0.891143 6.551060 1.893120 -32.833599 0.000000 23.546700 0.000000 -19.743900 -1.720730 27.458799 4.603763 1.442937 -3.346162 0.000000 0.000000 8.243910 -7.620270 4.019972 4.802744 0.000000 0.000000 -37.398800 2.247541 4.719767 -2.277176 0.000000 0.000000 7.308410 9.011052 -6.702732 9.913817 0.000000 0.000000 -28.182200 
-19.801515 9.211351 49.394517 -175.044230 0.459772 -176.008171 2.652807 -2.536858 -5.673579 0.413758 -2.754392 4.097622 0.000000 0.000000 0.000000 -5.512308 0.559939 -13.723616 8.762895 7.604330 -53.246577 -1.241120 15.878300 -4.962380 -6.863990 -2.600000 -32.686699 0.000000 -20.978901 0.000000 32.028400 8.434360 24.751900 9.103510 -10.620800 -0.912547 6.523260 1.909070 -32.844200 0.000000 23.545700 0.000000 -19.733101 -1.795240 27.422701 4.600599 1.433319 -3.349219 0.000000 0.000000 8.241230 -7.641013 4.026982 4.815618 0.000000 0.000000 -37.503599 2.245672 4.708351 -2.281694 0.000000 0.000000 7.314460 9.000045 -6.712005 9.922115 0.000000 0.000000 -28.179000 
-19.802489 9.211360 49.395880 -175.037285 0.447271 -175.998725 2.730271 -2.482832 -5.650632 0.299324 -2.714189 4.060923 0.000000 0.000000 0.000000 -5.393784 0.520327 -13.722741 8.731246 7.629166 -53.253792 -1.180280 15.802900 -4.924310 -6.882470 -2.609730 -32.799900 0.000000 -20.928400 0.000000 31.979200 8.232380 24.733400 9.174530 -10.700100 -0.879991 6.505430 1.922670 -32.876202 0.000000 23.547800 0.000000 -19.783899 -1.817440 27.446400 4.603324 1.449075 -3.367458 0.000000 0.000000 8.235980 -7.626583 4.000181 4.821474 0.000000 0.000000 -37.493601 2.246269 4.681892 -2.302898 0.000000 0.000000 7.322800 8.999323 -6.701097 9.932224 0.000000 0.000000 -28.190200 
